<svg viewBox="0 0 480 200" xmlns="http://www.w3.org/2000/svg" role="img" aria-label="Prise de notes en cours">
  <rect width="480" height="200" fill="#1e2a4a"/>
  
    <rect x="332" y="148" width="76" height="16" rx="3" fill="#2563eb"/>
    <rect x="338" y="130" width="64" height="16" rx="3" fill="#7c3aed"/>
    <rect x="344" y="112" width="52" height="16" rx="3" fill="#f59e0b"/>
    <circle cx="90" cy="124" r="18" fill="#f4c9a0"/>
    <rect x="72" y="144" width="36" height="46" rx="14" fill="#f59e0b"/><rect x="118" y="150" width="70" height="46" rx="6" fill="#fff"/><line x1="128" y1="164" x2="176" y2="164" stroke="#94a3b8" stroke-width="3"/><line x1="128" y1="176" x2="166" y2="176" stroke="#94a3b8" stroke-width="3"/><line x1="150" y1="150" x2="180" y2="120" stroke="#fbbf24" stroke-width="6" stroke-linecap="round"/><polygon points="260.0,41.0 262.4,46.7 268.6,47.2 263.9,51.3 265.3,57.3 260.0,54.0 254.7,57.3 256.1,51.3 251.4,47.2 257.6,46.7" fill="#f59e0b"/><polygon points="300.0,84.0 301.6,87.8 305.7,88.1 302.6,90.8 303.5,94.9 300.0,92.7 296.5,94.9 297.4,90.8 294.3,88.1 298.4,87.8" fill="#fff"/><polygon points="230.0,95.0 231.3,98.2 234.8,98.5 232.1,100.7 232.9,104.0 230.0,102.2 227.1,104.0 227.9,100.7 225.2,98.5 228.7,98.2" fill="#7c3aed"/>
</svg>
