<svg viewBox="0 0 480 200" xmlns="http://www.w3.org/2000/svg" role="img" aria-label="Réviser les maths en ECG">
  <rect width="480" height="200" fill="#fef3c7"/>
  <path d="M 100 60 h 70 l -42 40 l 42 40 h -70" fill="none" stroke="#b45309" stroke-width="10" stroke-linecap="round" stroke-linejoin="round"/><rect x="270" y="46" width="90" height="118" rx="12" fill="#1e293b"/><rect x="282" y="58" width="66" height="26" rx="4" fill="#fde68a"/><rect x="282" y="96" width="16" height="16" rx="3" fill="#e2e8f0"/><rect x="304" y="96" width="16" height="16" rx="3" fill="#e2e8f0"/><rect x="326" y="96" width="16" height="16" rx="3" fill="#e2e8f0"/><rect x="282" y="118" width="16" height="16" rx="3" fill="#e2e8f0"/><rect x="304" y="118" width="16" height="16" rx="3" fill="#e2e8f0"/><rect x="326" y="118" width="16" height="16" rx="3" fill="#e2e8f0"/><rect x="282" y="140" width="16" height="16" rx="3" fill="#e2e8f0"/><rect x="304" y="140" width="16" height="16" rx="3" fill="#e2e8f0"/><rect x="326" y="140" width="16" height="16" rx="3" fill="#e2e8f0"/>
</svg>
